<?xml version="1.0" encoding="utf-8"?>
<!-- Generator: Adobe Illustrator 25.4.1, SVG Export Plug-In . SVG Version: 6.00 Build 0)  -->
<svg version="1.1" id="Layer_1" xmlns="http://www.w3.org/2000/svg" xmlns:xlink="http://www.w3.org/1999/xlink" x="0px" y="0px"
	 viewBox="0 0 460 402" style="enable-background:new 0 0 460 402;" xml:space="preserve">
<style type="text/css">
	.st0{display:none;}
	.st1{fill:none;stroke:#000000;stroke-width:1.5;stroke-linecap:round;stroke-linejoin:round;stroke-miterlimit:10;}
	.st2{fill:#B8CBFF;stroke:#000000;stroke-width:1.5;stroke-linecap:round;stroke-linejoin:round;stroke-miterlimit:10;}
	.st3{fill:#FFFFFF;stroke:#000000;stroke-width:1.5;stroke-linecap:round;stroke-linejoin:round;stroke-miterlimit:10;}
	.st4{fill:none;stroke:#000000;stroke-width:1.5;stroke-miterlimit:10;}
	.st5{stroke:#000000;stroke-width:1.5;stroke-linecap:round;stroke-linejoin:round;stroke-miterlimit:10;}
	.st6{stroke:#000000;stroke-width:1.5;stroke-linecap:round;stroke-linejoin:round;stroke-miterlimit:9.9995;}
	.st7{fill:#FFC0BF;}
	.st8{fill:#EDF2FF;stroke:#000000;stroke-width:1.5;stroke-linecap:round;stroke-linejoin:round;stroke-miterlimit:10;}
	.st9{fill:url(#SVGID_1_);stroke:#000000;stroke-width:1.5;stroke-linecap:round;stroke-linejoin:round;stroke-miterlimit:10;}
	
		.st10{fill:url(#SVGID_00000123433600472500976000000013494644129336747926_);stroke:#000000;stroke-width:1.5;stroke-linecap:round;stroke-linejoin:round;stroke-miterlimit:10;}
	
		.st11{fill:url(#SVGID_00000048477143013059445650000004301466719321830308_);stroke:#000000;stroke-width:1.5;stroke-linecap:round;stroke-linejoin:round;stroke-miterlimit:10;}
</style>
<line class="st1" x1="74.5" y1="352.5" x2="100.2" y2="352.5"/>
<line class="st1" x1="190" y1="356.5" x2="217" y2="356.5"/>
<g>
	<g>
		<g>
			<path class="st1" d="M88.75,335.85l-0.39,16.5l0,0c2.03,0,3.94-0.97,5.1-2.64c1.55-2.23,3.49-5.76,4.12-10.21"/>
			<path class="st1" d="M238.31,319.69l-34.72,31.83c-2.07,1.9-0.76,4.93,2.05,4.98h20.2c0,0-2.17-5.75-12.34-6"/>
			<path class="st1" d="M76.5,320.5v-186c0-8.84,7.16-16,16-16h280c8.84,0,16,7.16,16,16v186"/>
			<polyline class="st1" points="118,320.5 76.5,320.5 33.5,365.5 431.25,365.5 388.5,320.5 311.5,320.5 			"/>
			<path class="st1" d="M431.5,365.58v4.23c0,4.75-3.85,8.61-8.61,8.61L42.11,378.5c-4.76-0.01-8.61-4.25-8.61-9v-4"/>
		</g>
		<circle class="st1" cx="242.11" cy="127.86" r="2.86"/>
	</g>
</g>
<g>
	<g>
		<g>
			<path class="st1" d="M265.57,276.58c2.05,8.9,4.53,18.16,7.51,26.79c12.66,36.68,31.4,53.06,31.42,53.06h34.32
				c3.08,0,3.69-3.72,1.24-5.6c-5.59-4.3-13.54-4.38-13.56-4.33"/>
			<path class="st1" d="M258.72,245.2c1.08,5.77,2.35,11.91,3.51,17.67"/>
			<path class="st1" d="M298.18,257.94c-0.06-4.05,0.15-7.85,0.67-11.27c0,0.1,0,0.19,0,0.29"/>
			<path class="st1" d="M327.88,349.2c-10.89-15.21-18.2-28.59-22.92-46.68c-2.62-10.04-4.68-21.05-5.81-30.66"/>
			<path class="st1" d="M264.45,286.28c-13.84-1.68-25.99-12.39-28.73-26.07c-2.73-13.68,4.15-28.73,16.29-35.61
				c12.13-6.87,28.59-5.04,38.92,4.33c9.55,8.67,13.73,23.42,9.09,35.35"/>
			<path class="st1" d="M271.5,261.5v-9.55c0-0.8,0.63-1.45,1.4-1.45h15.2c0.77,0,1.4,0.65,1.4,1.45v6.77"/>
			<path class="st1" d="M289.5,273.5v10.57c0,0.79-0.63,1.43-1.4,1.43h-15.2c-0.77,0-1.4-0.64-1.4-2.42v-7.57"/>
			<path class="st2" d="M261.41,275.58l-1.54-10.76c-0.11-0.79,0.44-1.53,1.23-1.64l9.57-1.37l27-3.86
				c0.79-0.11,1.53,0.44,1.64,1.23l1.54,10.76c0.11,0.79-0.44,1.53-1.23,1.64l-36.57,5.22
				C262.26,276.92,261.52,276.37,261.41,275.58z"/>
			<path class="st3" d="M294.37,208.97l0.03-0.52c0.13-2.21,2.03-3.88,4.23-3.75l22.39,1.35c2.21,0.13,3.89,2.03,3.75,4.23
				l-0.03,0.52c-0.13,2.21-2.03,3.88-4.23,3.75l-22.39-1.35C295.92,213.07,294.24,211.17,294.37,208.97z"/>
			<circle class="st4" cx="303.36" cy="219.84" r="1.45"/>
			<path class="st4" d="M276.5,285.5v16c0,2.21,1.79,4,4,4l0,0c2.21,0,4-1.79,4-4v-53.61c0-4.72,2.32-9.23,6.33-11.72
				c1.03-0.64,2.06-1.08,2.94-1.1c6.49-0.17,11.6-7.46,10.03-13.87"/>
			<path class="st1" d="M320.66,225.91h1.19c0.65,0,1.18-0.62,1.21-1.4l0.29-9.56"/>
			<path class="st1" d="M302.23,236.83c3.99,1.99,8.93,1.64,12.64-0.87c3.71-2.52,6.07-7.13,5.76-11.79"/>
			<path class="st1" d="M303.25,215.23c-0.91-0.43-2.06,0.03-2.68,0.83s-0.81,1.85-0.87,2.86c-0.07,1.21,0.02,2.43,0.28,3.61
				c0.12,0.57,0.29,1.16,0.68,1.6s1.05,0.69,1.61,0.5"/>
			<circle class="st5" cx="319.24" cy="219.21" r="0.82"/>
			
				<ellipse transform="matrix(0.8841 -0.4672 0.4672 0.8841 -63.6519 173.1995)" class="st6" cx="317.4" cy="214.94" rx="3.11" ry="1.18"/>
			<path class="st1" d="M294.35,211.69c-2.95,3.47-6.17,6.75-9.62,9.78"/>
			<path class="st1" d="M88.86,335.77c39.47-15.75,73.88-41.7,97.86-76.8"/>
			<path class="st1" d="M171.36,278.64c3.05,3.2,6.68,6.63,10.14,9.38"/>
			<path class="st1" d="M97.35,341.57c35.16-3.47,66.14-6.61,96.56-26.59"/>
			<path class="st1" d="M229.11,328.09c-18.37,3.91-55.1-16-46.55-55.12c3.09-14.15,6.91-22.85,19.15-35.1
				c10.25-10.25,20.62-15.6,34.71-18.98c11.45-2.74,28.1-3.23,39.33-0.45c11.43,2.83,22.22,9.92,27.34,20.53
				c4.65,9.63,2.56,22.42-2.21,30.13"/>
			<path class="st1" d="M208.94,324.68c11.85-10.84,33.17-32.96,34.92-34.56c-12.18-11.17-33.49-34.93-45.2-48.8"/>
			<path class="st1" d="M198.82,258.58c-11.9,17.07-7.75,43.25,8.84,55.8"/>
			<path class="st1" d="M244.11,290.77c3.98,2.56,13.08,8.73,17.84,14.27c4.75,5.54,7.27,13.63,4.28,20.28
				c-2.24,4.99-6.81,8.74-11.78,11c-14.46,6.59-34.87,14.38-34.87,14.38"/>
			<path class="st1" d="M243.86,290.27c8.33,0,16.21-1.11,22.86-5.34c0.08,0,0.16,0,0.24,0"/>
			<path class="st1" d="M323.06,205.76c1.08-2.38-0.83-5.23-3.25-6.24c-2.41-1.01-5.14-0.76-7.76-0.78
				c-2.62-0.01-5.48-0.42-7.26-2.34c-2.17-2.34-6.27-2.5-8.63-0.34s-2.54,6.26-0.39,8.62"/>
			<path class="st1" d="M304.67,220.86c0.25,0.37,0.69,0.59,1.13,0.59s0.88-0.24,1.12-0.61c0.3-0.45,0.3-1.02,0.3-1.56
				c-0.01-1.78-0.03-3.56-0.04-5.33"/>
			<path class="st1" d="M289.66,217.67c2.74,2.25,6.8,2.75,10,1.22"/>
			<path class="st1" d="M220.44,336.19c4.14,3.57,8.9,6.46,14,8.5"/>
		</g>
		<path class="st1" d="M315.66,223.82c-0.14,1.05,0.58,2.15,1.6,2.43"/>
		
			<ellipse transform="matrix(0.8355 -0.5495 0.5495 0.8355 -69.8592 208.8316)" class="st7" cx="313.85" cy="221.09" rx="2.87" ry="1.81"/>
	</g>
</g>
<line class="st1" x1="84.24" y1="137.4" x2="380.24" y2="137.4"/>
<path class="st8" d="M28.5,200.5v-126c0-4.42,3.58-8,8-8h170c4.42,0,8,3.58,8,8v126c0,4.42-3.58,8-8,8h-170
	C32.08,208.5,28.5,204.92,28.5,200.5z"/>
<g>
	<line class="st1" x1="40.5" y1="133.5" x2="40.5" y2="117.5"/>
	<g>
		<path class="st1" d="M46.25,118.5h42.5H46.25z"/>
		<path class="st1" d="M46.5,125.5h31H46.5z"/>
		<linearGradient id="SVGID_1_" gradientUnits="userSpaceOnUse" x1="46.25" y1="132.5" x2="96.75" y2="132.5">
			<stop  offset="0" style="stop-color:#FFFFFF"/>
			<stop  offset="1" style="stop-color:#000000"/>
		</linearGradient>
		<path class="st9" d="M46.25,132.5h50.5H46.25z"/>
	</g>
</g>
<g>
	<path class="st1" d="M65.5,91.5h105H65.5z"/>
	<path class="st1" d="M65.25,98.5h87.5H65.25z"/>
	<path class="st1" d="M65.25,105.5h49.5H65.25z"/>
</g>
<path class="st1" d="M40.5,104.5v-12c0-1.1,0.9-2,2-2h12c1.1,0,2,0.9,2,2v12c0,1.1-0.9,2-2,2h-12C41.4,106.5,40.5,105.61,40.5,104.5
	z"/>
<rect x="105.75" y="71.25" class="st1" width="31.5" height="2.5"/>
<circle class="st1" cx="37.84" cy="72.85" r="2"/>
<circle class="st1" cx="44.84" cy="72.85" r="2"/>
<circle class="st1" cx="52.34" cy="72.85" r="2"/>
<path class="st5" d="M141.5,173.5L141.5,173.5c0-11.32,9.38-20.5,20.95-20.5h101.1c11.57,0,20.95,9.18,20.95,20.5l0,0
	c0,11.32-9.38,20.5-20.95,20.5h-101.1C150.88,194,141.5,184.82,141.5,173.5z"/>
<path class="st2" d="M142,170L142,170c0-11.32,9.38-20.5,20.95-20.5h101.1c11.57,0,20.95,9.18,20.95,20.5l0,0
	c0,11.32-9.38,20.5-20.95,20.5h-101.1C151.38,190.5,142,181.32,142,170z"/>
<polyline class="st1" points="257.69,179.35 268.11,170.78 257.69,162.21 "/>
<polyline class="st1" points="169.11,179.35 158.69,170.78 169.11,162.21 "/>
<path class="st1" d="M221.5,163.5h4.27c2.06,0,3.73,1.57,3.73,3.5l0,0c0,1.94-1.67,3.5-3.73,3.5h-4.27"/>
<line class="st1" x1="230.5" y1="177.5" x2="225.95" y2="170.5"/>
<line class="st1" x1="221.5" y1="177" x2="221.5" y2="163.5"/>
<line class="st1" x1="208.71" y1="170.5" x2="214.7" y2="170.5"/>
<polyline class="st1" points="205.79,177.19 210.86,163.7 211.86,163.7 217.62,177.19 "/>
<g>
	<line class="st1" x1="234.5" y1="163.5" x2="242.5" y2="163.5"/>
	<line class="st1" x1="238.5" y1="177" x2="238.5" y2="164"/>
</g>
<path class="st1" d="M190.06,164.48c-1.33-1.13-3.91-0.91-4.92,0.44c-0.5,0.66-0.63,1.56-0.18,2.25c0.71,1.1,2.41,1.33,3.75,1.87
	c1.35,0.54,2.45,1.53,2.98,2.71c0.53,1.18,0.47,2.55-0.21,3.68c-0.32,0.53-0.78,1.02-1.38,1.32c-0.53,0.28-1.17,0.41-1.79,0.46
	c-1.6,0.15-3.31-0.16-4.5-1.07c-1.2-0.91-1.38-2.29-1.2-3.75"/>
<rect x="158.7" y="234.41" class="st1" width="7.5" height="7.5"/>
<rect x="245.96" y="23.43" transform="matrix(0.6595 -0.7517 0.7517 0.6595 65.1179 195.5782)" class="st1" width="4.96" height="4.96"/>
<path class="st1" d="M335.85,275.57c-0.73-5.04,1.38-10.39,5.34-13.59s9.64-4.12,14.41-2.34c1.93,0.72,3.82,1.98,4.57,3.9
	s-0.12,4.53-2.11,5.06c-1.71,0.46-3.53-0.78-4.27-2.39c-0.74-1.61-0.65-3.48-0.41-5.23c0.49-3.52,1.57-7.03,3.62-9.93
	s5.18-5.15,8.71-5.63"/>
<path class="st1" d="M256.7,73.92c-5.04,0.73-10.39-1.38-13.59-5.34c-3.2-3.96-4.12-9.64-2.34-14.41c0.72-1.93,1.98-3.82,3.9-4.57
	s4.53,0.12,5.06,2.11c0.46,1.71-0.78,3.53-2.39,4.27s-3.48,0.65-5.23,0.41c-3.52-0.49-7.03-1.57-9.93-3.62s-5.15-5.18-5.63-8.71"/>
<circle class="st1" cx="285.2" cy="59.07" r="6"/>
<g id="Layer_21">
	<line class="st1" x1="267.5" y1="320.5" x2="279.5" y2="320.5"/>
	<line class="st1" x1="185" y1="320.5" x2="200" y2="320.5"/>
</g>
<line class="st1" x1="28.7" y1="78.5" x2="214.2" y2="78.5"/>
<g>
	<line class="st1" x1="50.5" y1="159.5" x2="50.5" y2="143.5"/>
	<g>
		<path class="st1" d="M56.25,144.5h42.5H56.25z"/>
		<path class="st1" d="M56.5,151.5h31H56.5z"/>
		
			<linearGradient id="SVGID_00000018920600064143497990000008441788360618751123_" gradientUnits="userSpaceOnUse" x1="56.25" y1="158.5" x2="76.75" y2="158.5">
			<stop  offset="0" style="stop-color:#FFFFFF"/>
			<stop  offset="1" style="stop-color:#000000"/>
		</linearGradient>
		
			<path style="fill:url(#SVGID_00000018920600064143497990000008441788360618751123_);stroke:#000000;stroke-width:1.5;stroke-linecap:round;stroke-linejoin:round;stroke-miterlimit:10;" d="
			M56.25,158.5h20.5H56.25z"/>
	</g>
</g>
<g>
	<line class="st1" x1="63.5" y1="186.5" x2="63.5" y2="170.5"/>
	<g>
		<path class="st1" d="M69.25,171.5h22.5H69.25z"/>
		<path class="st1" d="M69.5,178.5h31H69.5z"/>
		
			<linearGradient id="SVGID_00000174582801690885063630000004571222685870825603_" gradientUnits="userSpaceOnUse" x1="69.25" y1="185.5" x2="82.75" y2="185.5">
			<stop  offset="0" style="stop-color:#FFFFFF"/>
			<stop  offset="1" style="stop-color:#000000"/>
		</linearGradient>
		
			<path style="fill:url(#SVGID_00000174582801690885063630000004571222685870825603_);stroke:#000000;stroke-width:1.5;stroke-linecap:round;stroke-linejoin:round;stroke-miterlimit:10;" d="
			M69.25,185.5h13.5H69.25z"/>
	</g>
</g>
<g>
	<line class="st1" x1="195.5" y1="163.5" x2="203.5" y2="163.5"/>
	<line class="st1" x1="199.5" y1="177" x2="199.5" y2="164"/>
</g>
</svg>
